<svg width="60" height="55" fill="none" xmlns="http://www.w3.org/2000/svg"><rect width="60" height="55" rx="15" fill="#F2F2F2"/><path d="M30.42 43.715c8.822 0 15.973-7.151 15.973-15.973 0-8.821-7.151-15.973-15.973-15.973-8.821 0-15.973 7.152-15.973 15.973 0 8.822 7.152 15.973 15.973 15.973z" fill="#AAA"/><path d="M35.74 16.227h-3.45c-2.049 0-4.328.898-4.328 3.992.01 1.078 0 2.11 0 3.273h-2.37v3.93h2.444v11.312h4.49V27.347h2.963l.268-3.866h-3.309s.007-1.72 0-2.22c0-1.222 1.221-1.152 1.295-1.152.58 0 1.71.002 2 0v-3.882h-.001z" fill="#fff"/></svg>