<svg width="60" height="55" fill="none" xmlns="http://www.w3.org/2000/svg"><rect width="60" height="55" rx="15" fill="#F2F2F2"/><path d="M22.392 43.602c-1.9-.086-2.932-.402-3.618-.67a6.048 6.048 0 01-2.24-1.457 6.006 6.006 0 01-1.458-2.24c-.268-.687-.584-1.719-.67-3.618-.096-2.054-.115-2.67-.115-7.873s.021-5.818.114-7.874c.086-1.9.404-2.93.67-3.618a6.078 6.078 0 011.457-2.242 6.015 6.015 0 012.24-1.457c.687-.268 1.72-.584 3.62-.67 2.054-.094 2.67-.113 7.872-.113 5.203 0 5.818.02 7.874.113 1.9.086 2.93.404 3.618.67.91.352 1.558.775 2.24 1.457.683.682 1.104 1.331 1.458 2.24.268.687.584 1.72.67 3.62.094 2.055.113 2.67.113 7.873 0 5.2-.019 5.818-.113 7.874-.086 1.9-.404 2.931-.67 3.618a6.048 6.048 0 01-1.457 2.24c-.682.681-1.331 1.103-2.241 1.457-.687.268-1.718.584-3.618.67-2.054.094-2.671.113-7.874.113-5.201 0-5.818-.018-7.872-.113z" fill="url(#paint0_radial_2025_2)"/><path d="M22.392 43.602c-1.9-.086-2.932-.402-3.618-.67a6.048 6.048 0 01-2.24-1.457 6.006 6.006 0 01-1.458-2.24c-.268-.687-.584-1.719-.67-3.618-.096-2.054-.115-2.67-.115-7.873s.021-5.818.114-7.874c.086-1.9.404-2.93.67-3.618a6.078 6.078 0 011.457-2.242 6.015 6.015 0 012.24-1.457c.687-.268 1.72-.584 3.62-.67 2.054-.094 2.67-.113 7.872-.113 5.203 0 5.818.02 7.874.113 1.9.086 2.93.404 3.618.67.91.352 1.558.775 2.24 1.457.683.682 1.104 1.331 1.458 2.24.268.687.584 1.72.67 3.62.094 2.055.113 2.67.113 7.873 0 5.2-.019 5.818-.113 7.874-.086 1.9-.404 2.931-.67 3.618a6.048 6.048 0 01-1.457 2.24c-.682.681-1.331 1.103-2.241 1.457-.687.268-1.718.584-3.618.67-2.054.094-2.671.113-7.874.113-5.201 0-5.818-.018-7.872-.113z" fill="#AAA"/><path d="M26.33 27.82a3.959 3.959 0 013.955-3.962 3.96 3.96 0 013.955 3.963 3.96 3.96 0 01-3.956 3.962 3.959 3.959 0 01-3.955-3.962zm-2.14 0a6.098 6.098 0 006.095 6.104 6.098 6.098 0 006.093-6.103 6.098 6.098 0 00-6.093-6.104 6.098 6.098 0 00-6.094 6.104zm11.005-6.345a1.428 1.428 0 00.879 1.319 1.42 1.42 0 001.942-1.04 1.43 1.43 0 00-.605-1.464 1.422 1.422 0 00-.79-.24h-.002a1.424 1.424 0 00-1.424 1.425zM25.49 37.496c-1.157-.053-1.786-.246-2.204-.409a3.687 3.687 0 01-1.365-.889 3.667 3.667 0 01-.887-1.366c-.163-.419-.356-1.049-.409-2.207-.057-1.253-.069-1.63-.069-4.804 0-3.174.013-3.55.07-4.803.052-1.16.246-1.788.408-2.208a3.69 3.69 0 01.887-1.367c.416-.416.81-.674 1.365-.89.418-.162 1.047-.355 2.204-.408 1.251-.058 1.627-.07 4.795-.07 3.167 0 3.543.013 4.795.07 1.157.053 1.785.247 2.204.41.554.214.95.473 1.365.888.416.416.672.813.888 1.367.163.419.355 1.049.408 2.208.057 1.254.069 1.63.069 4.803 0 3.174-.012 3.55-.069 4.804-.053 1.159-.246 1.788-.408 2.207a3.685 3.685 0 01-.888 1.366 3.687 3.687 0 01-1.365.89c-.418.163-1.047.356-2.204.408-1.25.058-1.626.07-4.795.07-3.17 0-3.544-.012-4.795-.07zm-.098-21.49c-1.263.058-2.127.259-2.88.553-.78.303-1.442.71-2.103 1.37a5.805 5.805 0 00-1.369 2.106c-.293.756-.493 1.62-.55 2.885-.06 1.268-.073 1.673-.073 4.9 0 3.229.014 3.634.072 4.901.058 1.266.258 2.13.551 2.886a5.813 5.813 0 001.37 2.105 5.83 5.83 0 002.101 1.371c.756.294 1.618.495 2.88.552 1.267.058 1.67.072 4.894.072 3.222 0 3.627-.013 4.892-.072 1.264-.057 2.126-.258 2.88-.552a5.835 5.835 0 002.103-1.37 5.824 5.824 0 001.369-2.106c.293-.756.494-1.62.55-2.886.058-1.268.072-1.672.072-4.9 0-3.228-.014-3.633-.071-4.9-.058-1.266-.258-2.13-.551-2.886a5.846 5.846 0 00-1.37-2.105 5.804 5.804 0 00-2.1-1.371c-.756-.294-1.619-.496-2.88-.552-1.267-.058-1.67-.072-4.893-.072-3.222 0-3.628.013-4.894.072" fill="#fff"/><defs><radialGradient id="paint0_radial_2025_2" cx="0" cy="0" r="1" gradientUnits="userSpaceOnUse" gradientTransform="translate(16.359 43.015) scale(40.5593)"><stop offset=".09" stop-color="#FA8F21"/><stop offset=".78" stop-color="#D82D7E"/></radialGradient></defs></svg>