<svg width="78" height="64" fill="none" xmlns="http://www.w3.org/2000/svg"><rect width="78" height="64" rx="20" fill="#57BE6C"/><path d="M54.092 44.548c1.052 0 1.908.821 1.908 1.831 0 1.012-.856 1.832-1.908 1.832H43.306c-1.052 0-1.908-.82-1.908-1.832 0-1.01.856-1.831 1.908-1.831h10.786zm-7.48-27.297l2.786 2.097c1.143.846 1.904 1.962 2.165 3.135.3 1.291-.02 2.559-.922 3.655L34.044 46.471c-.761.923-1.884 1.443-3.086 1.462l-6.615.077a.748.748 0 01-.742-.558l-1.503-6.175c-.26-1.135 0-2.308.762-3.212l11.766-14.428c.2-.23.56-.267.801-.096l4.951 3.732c.32.25.762.385 1.223.327.982-.115 1.644-.962 1.543-1.866-.06-.462-.3-.846-.621-1.135l-4.81-3.655a.653.653 0 01-.12-.94l1.863-2.291c1.724-2.097 4.73-2.29 7.156-.462z" fill="#fff"/></svg>