<svg width="176" height="29" fill="none" xmlns="http://www.w3.org/2000/svg"><path d="M7.86 19.82c3.35 0 5.038-1.113 5.062-3.34 0-.914-.645-1.64-1.934-2.18a13.942 13.942 0 00-1.968-.632 106.41 106.41 0 01-2.215-.598c-.75-.21-1.5-.445-2.25-.703a7.857 7.857 0 01-1.97-1.055C1.32 10.352.676 9.087.653 7.517c0-1.688.645-3.07 1.934-4.149C3.969 2.195 5.82 1.61 8.14 1.61c2.109 0 4.007.317 5.695.95.539.187.82.574.844 1.16 0 .281-.106.55-.317.808-.187.258-.41.387-.668.387-.234 0-.562-.07-.984-.21-1.266-.446-2.695-.669-4.29-.669-1.476 0-2.694.281-3.655.844-.985.586-1.477 1.394-1.477 2.426 0 1.078.633 1.91 1.898 2.496.586.258 1.243.48 1.97.668.726.164 1.476.34 2.25.527.773.188 1.511.422 2.214.703a8.59 8.59 0 011.969.985c1.265.914 1.91 2.25 1.933 4.007 0 1.641-.668 2.977-2.003 4.008-1.36 1.055-3.153 1.582-5.38 1.582-2.437 0-4.722-.457-6.855-1.37a1.474 1.474 0 01-.562-.458 1.32 1.32 0 01-.246-.773c0-.282.105-.54.316-.774.21-.258.445-.386.703-.386.281 0 .621.093 1.02.28.421.188 1.101.41 2.039.669.937.234 2.039.351 3.304.351zM19.11 8.5c0-.398.128-.715.386-.95a1.29 1.29 0 01.95-.386c.374 0 .679.129.913.387.235.234.352.55.352.949v12.34c0 .351-.117.656-.352.914-.234.258-.539.387-.914.387a1.29 1.29 0 01-.949-.387 1.25 1.25 0 01-.387-.914V8.5zm2.882-5.66c0 .422-.14.773-.422 1.055a1.43 1.43 0 01-1.054.421h-.176a1.43 1.43 0 01-1.055-.421c-.258-.282-.387-.633-.387-1.055v-.106c0-.421.141-.773.422-1.054a1.39 1.39 0 011.02-.422h.176c.422 0 .773.14 1.054.422.282.28.422.633.422 1.054v.106zm6.996 6.855c1.172-1.758 2.801-2.648 4.887-2.672 1.031 0 1.98.305 2.848.915.703.492 1.23 1.171 1.582 2.039.539-.844 1.066-1.43 1.582-1.758 1.078-.797 2.308-1.196 3.691-1.196 1.547 0 2.766.598 3.656 1.793.774 1.008 1.16 2.25 1.16 3.727v8.297c0 .351-.128.656-.386.914-.235.258-.54.387-.914.387a1.25 1.25 0 01-.914-.387 1.25 1.25 0 01-.387-.914v-7.77c0-1.218-.223-2.12-.668-2.707-.422-.61-1.172-.914-2.25-.914-1.688 0-3.082.926-4.184 2.778v8.613c0 .351-.129.656-.386.914-.235.258-.54.387-.914.387a1.25 1.25 0 01-.914-.387 1.25 1.25 0 01-.387-.914v-7.77c0-1.218-.223-2.12-.668-2.707-.422-.61-1.172-.914-2.25-.914-1.688 0-3.082.926-4.184 2.778v8.613c0 .351-.129.656-.386.914a1.25 1.25 0 01-.915.387 1.25 1.25 0 01-.914-.387 1.25 1.25 0 01-.386-.914V8.5c0-.352.117-.656.351-.914a1.24 1.24 0 01.95-.422c.351 0 .656.129.914.387.257.258.386.574.386.949v1.195zm26.438-.492c1.43-1.453 3.07-2.18 4.922-2.18 1.875 0 3.468.657 4.78 1.97 1.454 1.452 2.192 3.339 2.216 5.66 0 2.343-.738 4.242-2.215 5.695-1.36 1.312-2.965 1.957-4.817 1.933-1.828 0-3.456-.726-4.886-2.18v7.348c0 .375-.13.692-.387.95-.234.257-.539.386-.914.386a1.29 1.29 0 01-.95-.387 1.36 1.36 0 01-.35-.949V8.465c0-.352.116-.656.35-.914a1.29 1.29 0 01.95-.387c.375 0 .68.129.914.387.258.234.387.539.387.914v.738zm0 8.473c1.312 1.453 2.836 2.168 4.57 2.144 2.203 0 3.668-.972 4.395-2.918.234-.656.34-1.406.316-2.25 0-1.64-.434-2.93-1.3-3.867-.844-.867-1.981-1.3-3.41-1.3-1.735 0-3.259.714-4.571 2.144v6.047z" fill="#F58D41"/><path d="M77.926 19.82a6.376 6.376 0 003.058-.773c.329-.188.633-.281.914-.281.282-.024.528.093.739.351.21.258.316.563.316.914 0 .328-.222.633-.668.914-1.36.89-2.883 1.336-4.57 1.336-2.133 0-3.938-.668-5.414-2.004-1.547-1.43-2.309-3.304-2.285-5.625 0-2.32.761-4.195 2.285-5.625C73.754 7.668 75.559 7 77.715 7.023c1.148 0 2.086.153 2.812.457.75.282 1.336.575 1.758.88.446.28.668.597.668.949 0 .351-.105.644-.316.879-.211.234-.422.351-.633.351-.328 0-.668-.094-1.02-.281-.984-.54-2.003-.797-3.058-.774-1.688 0-3 .48-3.938 1.442-.914.937-1.37 2.18-1.37 3.726 0 1.547.456 2.801 1.37 3.762.938.938 2.25 1.406 3.938 1.406zM92.832 7.023c2.227 0 4.02.704 5.379 2.11 1.36 1.43 2.016 3.27 1.969 5.52 0 2.273-.657 4.113-1.97 5.519-1.358 1.406-3.151 2.11-5.378 2.11-2.25 0-4.031-.704-5.344-2.11-1.36-1.406-2.039-3.246-2.039-5.52 0-2.296.68-4.136 2.04-5.52 1.312-1.405 3.093-2.109 5.343-2.109zM89.598 18.73c.468.399.984.692 1.546.88a5.532 5.532 0 001.688.28c.54 0 1.09-.093 1.652-.28a4.358 4.358 0 001.547-.915c1.031-.937 1.547-2.297 1.547-4.078 0-1.734-.516-3.082-1.547-4.043-.867-.797-1.933-1.183-3.199-1.16-2.086 0-3.527.938-4.324 2.813-.281.68-.422 1.488-.422 2.425 0 .938.14 1.746.422 2.426.281.68.644 1.23 1.09 1.652zm20.707-11.707c2.226 0 4.019.704 5.379 2.11 1.359 1.43 2.015 3.27 1.968 5.52 0 2.273-.656 4.113-1.968 5.519-1.36 1.406-3.153 2.11-5.379 2.11-2.25 0-4.032-.704-5.344-2.11-1.359-1.406-2.039-3.246-2.039-5.52 0-2.296.68-4.136 2.039-5.52 1.312-1.405 3.094-2.109 5.344-2.109zM107.07 18.73c.469.399.985.692 1.547.88a5.535 5.535 0 001.688.28c.539 0 1.09-.093 1.652-.28a4.357 4.357 0 001.547-.915c1.031-.937 1.547-2.297 1.547-4.078 0-1.734-.516-3.082-1.547-4.043-.867-.797-1.934-1.183-3.199-1.16-2.086 0-3.528.938-4.325 2.813-.281.68-.421 1.488-.421 2.425 0 .938.14 1.746.421 2.426.282.68.645 1.23 1.09 1.652zm26.403 1.372c.187.234.281.527.281.878a1.1 1.1 0 01-.387.844 1.172 1.172 0 01-.808.317c-.469 0-.868-.176-1.196-.528l-4.957-6.75-2.496 2.285v3.692c0 .351-.129.656-.387.914a1.248 1.248 0 01-.914.387 1.25 1.25 0 01-.914-.387 1.252 1.252 0 01-.386-.914V2.137c0-.352.117-.657.351-.914a1.29 1.29 0 01.949-.387c.352 0 .657.129.914.387.258.257.387.562.387.914v11.777l6.856-6.328a1.629 1.629 0 011.019-.352c.399 0 .68.141.844.422.187.258.281.492.281.703 0 .422-.164.797-.492 1.125l-4.148 3.727 5.203 6.89zM137.129 8.5c0-.398.129-.715.387-.95.257-.257.574-.386.949-.386s.68.129.914.387c.234.234.351.55.351.949v12.34c0 .351-.117.656-.351.914-.234.258-.539.387-.914.387s-.692-.13-.949-.387a1.25 1.25 0 01-.387-.914V8.5zm2.883-5.66c0 .422-.141.773-.422 1.055a1.431 1.431 0 01-1.055.421h-.176a1.43 1.43 0 01-1.054-.421c-.258-.282-.387-.633-.387-1.055v-.106c0-.421.141-.773.422-1.054a1.388 1.388 0 011.019-.422h.176c.422 0 .774.14 1.055.422.281.28.422.633.422 1.054v.106zm11.742 6.61c-1.688 0-3.27.925-4.746 2.777v8.613c0 .351-.129.656-.387.914a1.25 1.25 0 01-.914.387 1.25 1.25 0 01-.914-.387 1.25 1.25 0 01-.387-.914V8.5c0-.375.117-.691.352-.95a1.29 1.29 0 01.949-.386c.352 0 .656.129.914.387.258.234.387.55.387.949v1.195c.773-.797 1.441-1.37 2.004-1.722 1.078-.633 2.109-.95 3.093-.95 1.008 0 1.829.153 2.461.457a4.385 4.385 0 011.618 1.23c.89 1.056 1.336 2.368 1.336 3.938v8.192c0 .351-.129.656-.387.914a1.25 1.25 0 01-.914.387c-.352 0-.657-.13-.914-.387a1.25 1.25 0 01-.387-.914v-7.91c0-1.078-.246-1.922-.738-2.532-.492-.632-1.301-.949-2.426-.949zm21.164-.247V8.5c0-.352.117-.656.352-.914.257-.281.562-.422.914-.422.351 0 .656.129.914.387.281.258.422.574.422.949v12.867c0 2.438-.586 4.301-1.758 5.59-1.172 1.313-2.836 1.969-4.992 1.969-2.297 0-4.36-.504-6.188-1.512-.328-.21-.492-.504-.492-.879s.105-.691.316-.95c.235-.233.469-.35.703-.35.235 0 .446.035.633.105 1.453.726 3.035 1.09 4.746 1.09 2.953 0 4.43-1.559 4.43-4.676V19.82c-1.359 1.453-3 2.18-4.922 2.18-1.828 0-3.398-.621-4.711-1.863-1.523-1.407-2.285-3.282-2.285-5.625 0-2.367.762-4.254 2.285-5.66 1.313-1.243 2.906-1.852 4.781-1.829 1.875 0 3.493.727 4.852 2.18zm0 2.32a8.92 8.92 0 00-1.863-1.476 4.247 4.247 0 00-2.285-.633c-.844 0-1.571.106-2.18.316a4.378 4.378 0 00-1.547.95c-.938.89-1.406 2.168-1.406 3.832 0 2.484.984 4.078 2.953 4.781.609.21 1.336.316 2.18.316 1.406 0 2.789-.715 4.148-2.144v-5.942z" fill="#222"/></svg>