<svg width="89" height="95" fill="none" xmlns="http://www.w3.org/2000/svg"><g filter="url(#filter0_b_2094_3)"><rect width="89" height="95" rx="20" fill="#e49022" fill-opacity=".8"/></g><path d="M51.14 28c5.42 0 9.8 2.14 9.86 7.58v30.36c0 .34-.08.68-.24.98-.26.48-.7.84-1.24 1-.52.16-1.1.08-1.58-.2l-12.96-6.48L32 67.72c-.298.158-.64.26-.98.26-1.12 0-2.02-.92-2.02-2.04V35.58c0-5.44 4.4-7.58 9.8-7.58h12.34zm1.36 12.08H37.44c-.86 0-1.56.7-1.56 1.58 0 .878.7 1.58 1.56 1.58H52.5c.86 0 1.56-.702 1.56-1.58 0-.88-.7-1.58-1.56-1.58z" fill="#fff"/><defs><filter id="filter0_b_2094_3" x="-8" y="-8" width="105" height="111" filterUnits="userSpaceOnUse" color-interpolation-filters="sRGB"><feFlood flood-opacity="0" result="BackgroundImageFix"/><feGaussianBlur in="BackgroundImage" stdDeviation="4"/><feComposite in2="SourceAlpha" operator="in" result="effect1_backgroundBlur_2094_3"/><feBlend in="SourceGraphic" in2="effect1_backgroundBlur_2094_3" result="shape"/></filter></defs></svg>